<svg width="37" height="37" viewBox="0 0 37 37" fill="none" xmlns="http://www.w3.org/2000/svg">
<path fill-rule="evenodd" clip-rule="evenodd" d="M18.4167 36.8335C8.24565 36.8335 0 28.5878 0 18.4168C0 8.2458 8.24565 0.000152588 18.4167 0.000152588C28.5877 0.000152588 36.8333 8.2458 36.8333 18.4168C36.8333 28.5878 28.5877 36.8335 18.4167 36.8335ZM20.0909 11.7199C20.0909 11.2758 19.9145 10.85 19.6005 10.536C19.2866 10.222 18.8607 10.0456 18.4167 10.0456C17.9726 10.0456 17.5468 10.222 17.2328 10.536C16.9188 10.85 16.7424 11.2758 16.7424 11.7199V16.7426L11.7197 16.7426C11.2757 16.7426 10.8498 16.919 10.5358 17.233C10.2219 17.5469 10.0455 17.9728 10.0455 18.4168C10.0455 18.8609 10.2219 19.2867 10.5358 19.6007C10.8498 19.9147 11.2757 20.0911 11.7197 20.0911L16.7424 20.0911L16.7424 25.1138C16.7424 25.5578 16.9188 25.9837 17.2328 26.2977C17.5468 26.6116 17.9726 26.788 18.4167 26.788C18.8607 26.788 19.2866 26.6116 19.6005 26.2977C19.9145 25.9837 20.0909 25.5578 20.0909 25.1138L20.0909 20.0911H25.1136C25.5577 20.0911 25.9835 19.9147 26.2975 19.6007C26.6115 19.2867 26.7879 18.8609 26.7879 18.4168C26.7879 17.9728 26.6115 17.5469 26.2975 17.233C25.9835 16.919 25.5577 16.7426 25.1136 16.7426H20.0909V11.7199Z" fill="#99BC90"/>
</svg>
